<svg id="visual" viewBox="0 0 900 600" width="900" height="600" xmlns="http://www.w3.org/2000/svg" xmlns:xlink="http://www.w3.org/1999/xlink" version="1.1"><rect x="0" y="0" width="900" height="600" fill="#1e1e1e"></rect><path d="M0 407L60 407L60 237L120 237L120 298L180 298L180 362L240 362L240 298L300 298L300 352L360 352L360 266L420 266L420 297L480 297L480 228L540 228L540 416L600 416L600 433L660 433L660 432L720 432L720 232L780 232L780 381L840 381L840 227L900 227L900 428L900 601L900 601L840 601L840 601L780 601L780 601L720 601L720 601L660 601L660 601L600 601L600 601L540 601L540 601L480 601L480 601L420 601L420 601L360 601L360 601L300 601L300 601L240 601L240 601L180 601L180 601L120 601L120 601L60 601L60 601L0 601Z" fill="#000000"></path><path d="M0 392L60 392L60 288L120 288L120 330L180 330L180 294L240 294L240 308L300 308L300 409L360 409L360 319L420 319L420 363L480 363L480 380L540 380L540 439L600 439L600 342L660 342L660 452L720 452L720 305L780 305L780 425L840 425L840 409L900 409L900 436L900 601L900 601L840 601L840 601L780 601L780 601L720 601L720 601L660 601L660 601L600 601L600 601L540 601L540 601L480 601L480 601L420 601L420 601L360 601L360 601L300 601L300 601L240 601L240 601L180 601L180 601L120 601L120 601L60 601L60 601L0 601Z" fill="#141414"></path><path d="M0 475L60 475L60 431L120 431L120 379L180 379L180 411L240 411L240 351L300 351L300 488L360 488L360 422L420 422L420 447L480 447L480 342L540 342L540 400L600 400L600 380L660 380L660 356L720 356L720 437L780 437L780 467L840 467L840 421L900 421L900 363L900 601L900 601L840 601L840 601L780 601L780 601L720 601L720 601L660 601L660 601L600 601L600 601L540 601L540 601L480 601L480 601L420 601L420 601L360 601L360 601L300 601L300 601L240 601L240 601L180 601L180 601L120 601L120 601L60 601L60 601L0 601Z" fill="#212121"></path><path d="M0 392L60 392L60 452L120 452L120 483L180 483L180 425L240 425L240 422L300 422L300 519L360 519L360 471L420 471L420 438L480 438L480 515L540 515L540 446L600 446L600 490L660 490L660 512L720 512L720 473L780 473L780 503L840 503L840 510L900 510L900 481L900 601L900 601L840 601L840 601L780 601L780 601L720 601L720 601L660 601L660 601L600 601L600 601L540 601L540 601L480 601L480 601L420 601L420 601L360 601L360 601L300 601L300 601L240 601L240 601L180 601L180 601L120 601L120 601L60 601L60 601L0 601Z" fill="#212121"></path><path d="M0 451L60 451L60 500L120 500L120 490L180 490L180 474L240 474L240 470L300 470L300 530L360 530L360 550L420 550L420 463L480 463L480 525L540 525L540 457L600 457L600 467L660 467L660 504L720 504L720 536L780 536L780 544L840 544L840 500L900 500L900 481L900 601L900 601L840 601L840 601L780 601L780 601L720 601L720 601L660 601L660 601L600 601L600 601L540 601L540 601L480 601L480 601L420 601L420 601L360 601L360 601L300 601L300 601L240 601L240 601L180 601L180 601L120 601L120 601L60 601L60 601L0 601Z" fill="#141414"></path><path d="M0 526L60 526L60 572L120 572L120 555L180 555L180 573L240 573L240 552L300 552L300 552L360 552L360 579L420 579L420 563L480 563L480 521L540 521L540 504L600 504L600 507L660 507L660 573L720 573L720 506L780 506L780 545L840 545L840 563L900 563L900 506L900 601L900 601L840 601L840 601L780 601L780 601L720 601L720 601L660 601L660 601L600 601L600 601L540 601L540 601L480 601L480 601L420 601L420 601L360 601L360 601L300 601L300 601L240 601L240 601L180 601L180 601L120 601L120 601L60 601L60 601L0 601Z" fill="#000000"></path></svg>