<svg id="visual" viewBox="0 0 900 600" width="900" height="600" xmlns="http://www.w3.org/2000/svg" xmlns:xlink="http://www.w3.org/1999/xlink" version="1.1"><rect x="0" y="0" width="900" height="600" fill="#1e1e1e"></rect><path d="M0 380L60 380L60 185L120 185L120 256L180 256L180 328L240 328L240 255L300 255L300 317L360 317L360 219L420 219L420 254L480 254L480 175L540 175L540 389L600 389L600 409L660 409L660 409L720 409L720 179L780 179L780 350L840 350L840 174L900 174L900 404L900 601L900 601L840 601L840 601L780 601L780 601L720 601L720 601L660 601L660 601L600 601L600 601L540 601L540 601L480 601L480 601L420 601L420 601L360 601L360 601L300 601L300 601L240 601L240 601L180 601L180 601L120 601L120 601L60 601L60 601L0 601Z" fill="#000000"></path><path d="M0 362L60 362L60 243L120 243L120 292L180 292L180 250L240 250L240 267L300 267L300 382L360 382L360 279L420 279L420 330L480 330L480 349L540 349L540 416L600 416L600 305L660 305L660 431L720 431L720 263L780 263L780 400L840 400L840 382L900 382L900 413L900 601L900 601L840 601L840 601L780 601L780 601L720 601L720 601L660 601L660 601L600 601L600 601L540 601L540 601L480 601L480 601L420 601L420 601L360 601L360 601L300 601L300 601L240 601L240 601L180 601L180 601L120 601L120 601L60 601L60 601L0 601Z" fill="#141414"></path><path d="M0 457L60 457L60 407L120 407L120 348L180 348L180 384L240 384L240 315L300 315L300 472L360 472L360 397L420 397L420 425L480 425L480 306L540 306L540 372L600 372L600 348L660 348L660 322L720 322L720 414L780 414L780 448L840 448L840 395L900 395L900 330L900 601L900 601L840 601L840 601L780 601L780 601L720 601L720 601L660 601L660 601L600 601L600 601L540 601L540 601L480 601L480 601L420 601L420 601L360 601L360 601L300 601L300 601L240 601L240 601L180 601L180 601L120 601L120 601L60 601L60 601L0 601Z" fill="#212121"></path><path d="M0 363L60 363L60 431L120 431L120 466L180 466L180 401L240 401L240 397L300 397L300 507L360 507L360 453L420 453L420 415L480 415L480 502L540 502L540 424L600 424L600 475L660 475L660 499L720 499L720 455L780 455L780 489L840 489L840 497L900 497L900 464L900 601L900 601L840 601L840 601L780 601L780 601L720 601L720 601L660 601L660 601L600 601L600 601L540 601L540 601L480 601L480 601L420 601L420 601L360 601L360 601L300 601L300 601L240 601L240 601L180 601L180 601L120 601L120 601L60 601L60 601L0 601Z" fill="#212121"></path><path d="M0 429L60 429L60 486L120 486L120 474L180 474L180 456L240 456L240 452L300 452L300 521L360 521L360 543L420 543L420 443L480 443L480 514L540 514L540 437L600 437L600 448L660 448L660 490L720 490L720 527L780 527L780 537L840 537L840 485L900 485L900 464L900 601L900 601L840 601L840 601L780 601L780 601L720 601L720 601L660 601L660 601L600 601L600 601L540 601L540 601L480 601L480 601L420 601L420 601L360 601L360 601L300 601L300 601L240 601L240 601L180 601L180 601L120 601L120 601L60 601L60 601L0 601Z" fill="#141414"></path><path d="M0 515L60 515L60 568L120 568L120 549L180 549L180 569L240 569L240 546L300 546L300 545L360 545L360 576L420 576L420 558L480 558L480 509L540 509L540 490L600 490L600 494L660 494L660 569L720 569L720 492L780 492L780 537L840 537L840 558L900 558L900 493L900 601L900 601L840 601L840 601L780 601L780 601L720 601L720 601L660 601L660 601L600 601L600 601L540 601L540 601L480 601L480 601L420 601L420 601L360 601L360 601L300 601L300 601L240 601L240 601L180 601L180 601L120 601L120 601L60 601L60 601L0 601Z" fill="#000000"></path></svg>