<svg id="visual" viewBox="0 0 900 600" width="900" height="600" xmlns="http://www.w3.org/2000/svg" xmlns:xlink="http://www.w3.org/1999/xlink" version="1.1"><rect x="0" y="0" width="900" height="600" fill="#1e1e1e"></rect><path d="M0 489L60 489L60 392L120 392L120 427L180 427L180 464L240 464L240 427L300 427L300 458L360 458L360 409L420 409L420 427L480 427L480 387L540 387L540 494L600 494L600 504L660 504L660 504L720 504L720 389L780 389L780 475L840 475L840 386L900 386L900 502L900 601L900 601L840 601L840 601L780 601L780 601L720 601L720 601L660 601L660 601L600 601L600 601L540 601L540 601L480 601L480 601L420 601L420 601L360 601L360 601L300 601L300 601L240 601L240 601L180 601L180 601L120 601L120 601L60 601L60 601L0 601Z" fill="#000000"></path><path d="M0 480L60 480L60 421L120 421L120 445L180 445L180 425L240 425L240 433L300 433L300 490L360 490L360 439L420 439L420 464L480 464L480 474L540 474L540 508L600 508L600 452L660 452L660 515L720 515L720 431L780 431L780 499L840 499L840 490L900 490L900 506L900 601L900 601L840 601L840 601L780 601L780 601L720 601L720 601L660 601L660 601L600 601L600 601L540 601L540 601L480 601L480 601L420 601L420 601L360 601L360 601L300 601L300 601L240 601L240 601L180 601L180 601L120 601L120 601L60 601L60 601L0 601Z" fill="#141414"></path><path d="M0 528L60 528L60 503L120 503L120 474L180 474L180 492L240 492L240 457L300 457L300 535L360 535L360 498L420 498L420 512L480 512L480 452L540 452L540 486L600 486L600 474L660 474L660 460L720 460L720 507L780 507L780 524L840 524L840 497L900 497L900 464L900 601L900 601L840 601L840 601L780 601L780 601L720 601L720 601L660 601L660 601L600 601L600 601L540 601L540 601L480 601L480 601L420 601L420 601L360 601L360 601L300 601L300 601L240 601L240 601L180 601L180 601L120 601L120 601L60 601L60 601L0 601Z" fill="#212121"></path><path d="M0 481L60 481L60 515L120 515L120 533L180 533L180 500L240 500L240 498L300 498L300 553L360 553L360 526L420 526L420 507L480 507L480 551L540 551L540 512L600 512L600 537L660 537L660 549L720 549L720 527L780 527L780 544L840 544L840 548L900 548L900 531L900 601L900 601L840 601L840 601L780 601L780 601L720 601L720 601L660 601L660 601L600 601L600 601L540 601L540 601L480 601L480 601L420 601L420 601L360 601L360 601L300 601L300 601L240 601L240 601L180 601L180 601L120 601L120 601L60 601L60 601L0 601Z" fill="#212121"></path><path d="M0 514L60 514L60 543L120 543L120 537L180 537L180 527L240 527L240 525L300 525L300 560L360 560L360 571L420 571L420 521L480 521L480 557L540 557L540 518L600 518L600 524L660 524L660 545L720 545L720 563L780 563L780 568L840 568L840 542L900 542L900 532L900 601L900 601L840 601L840 601L780 601L780 601L720 601L720 601L660 601L660 601L600 601L600 601L540 601L540 601L480 601L480 601L420 601L420 601L360 601L360 601L300 601L300 601L240 601L240 601L180 601L180 601L120 601L120 601L60 601L60 601L0 601Z" fill="#141414"></path><path d="M0 557L60 557L60 584L120 584L120 574L180 574L180 584L240 584L240 572L300 572L300 572L360 572L360 588L420 588L420 579L480 579L480 554L540 554L540 544L600 544L600 546L660 546L660 584L720 584L720 546L780 546L780 568L840 568L840 578L900 578L900 546L900 601L900 601L840 601L840 601L780 601L780 601L720 601L720 601L660 601L660 601L600 601L600 601L540 601L540 601L480 601L480 601L420 601L420 601L360 601L360 601L300 601L300 601L240 601L240 601L180 601L180 601L120 601L120 601L60 601L60 601L0 601Z" fill="#000000"></path></svg>