<svg id="visual" viewBox="0 0 900 600" width="900" height="600" xmlns="http://www.w3.org/2000/svg" xmlns:xlink="http://www.w3.org/1999/xlink" version="1.1"><rect x="0" y="0" width="900" height="600" fill="#1e1e1e"></rect><path d="M0 408L53 408L53 407L106 407L106 445L159 445L159 437L212 437L212 420L265 420L265 434L318 434L318 456L371 456L371 407L424 407L424 415L476 415L476 407L529 407L529 434L582 434L582 424L635 424L635 424L688 424L688 405L741 405L741 441L794 441L794 442L847 442L847 423L900 423L900 410L900 601L900 601L847 601L847 601L794 601L794 601L741 601L741 601L688 601L688 601L635 601L635 601L582 601L582 601L529 601L529 601L476 601L476 601L424 601L424 601L371 601L371 601L318 601L318 601L265 601L265 601L212 601L212 601L159 601L159 601L106 601L106 601L53 601L53 601L0 601Z" fill="#000000"></path><path d="M0 423L53 423L53 428L106 428L106 464L159 464L159 420L212 420L212 455L265 455L265 436L318 436L318 470L371 470L371 460L424 460L424 449L476 449L476 468L529 468L529 469L582 469L582 436L635 436L635 426L688 426L688 419L741 419L741 426L794 426L794 435L847 435L847 449L900 449L900 438L900 601L900 601L847 601L847 601L794 601L794 601L741 601L741 601L688 601L688 601L635 601L635 601L582 601L582 601L529 601L529 601L476 601L476 601L424 601L424 601L371 601L371 601L318 601L318 601L265 601L265 601L212 601L212 601L159 601L159 601L106 601L106 601L53 601L53 601L0 601Z" fill="#0b0b0b"></path><path d="M0 468L53 468L53 469L106 469L106 438L159 438L159 463L212 463L212 480L265 480L265 453L318 453L318 467L371 467L371 438L424 438L424 476L476 476L476 463L529 463L529 479L582 479L582 477L635 477L635 478L688 478L688 466L741 466L741 445L794 445L794 459L847 459L847 478L900 478L900 462L900 601L900 601L847 601L847 601L794 601L794 601L741 601L741 601L688 601L688 601L635 601L635 601L582 601L582 601L529 601L529 601L476 601L476 601L424 601L424 601L371 601L371 601L318 601L318 601L265 601L265 601L212 601L212 601L159 601L159 601L106 601L106 601L53 601L53 601L0 601Z" fill="#141414"></path><path d="M0 473L53 473L53 460L106 460L106 461L159 461L159 457L212 457L212 483L265 483L265 460L318 460L318 489L371 489L371 469L424 469L424 493L476 493L476 491L529 491L529 484L582 484L582 475L635 475L635 486L688 486L688 470L741 470L741 478L794 478L794 472L847 472L847 456L900 456L900 489L900 601L900 601L847 601L847 601L794 601L794 601L741 601L741 601L688 601L688 601L635 601L635 601L582 601L582 601L529 601L529 601L476 601L476 601L424 601L424 601L371 601L371 601L318 601L318 601L265 601L265 601L212 601L212 601L159 601L159 601L106 601L106 601L53 601L53 601L0 601Z" fill="#1b1b1b"></path><path d="M0 508L53 508L53 487L106 487L106 496L159 496L159 472L212 472L212 472L265 472L265 474L318 474L318 484L371 484L371 502L424 502L424 491L476 491L476 494L529 494L529 493L582 493L582 496L635 496L635 506L688 506L688 495L741 495L741 469L794 469L794 470L847 470L847 471L900 471L900 475L900 601L900 601L847 601L847 601L794 601L794 601L741 601L741 601L688 601L688 601L635 601L635 601L582 601L582 601L529 601L529 601L476 601L476 601L424 601L424 601L371 601L371 601L318 601L318 601L265 601L265 601L212 601L212 601L159 601L159 601L106 601L106 601L53 601L53 601L0 601Z" fill="#212121"></path><path d="M0 510L53 510L53 513L106 513L106 498L159 498L159 519L212 519L212 511L265 511L265 506L318 506L318 495L371 495L371 495L424 495L424 520L476 520L476 507L529 507L529 504L582 504L582 503L635 503L635 500L688 500L688 515L741 515L741 521L794 521L794 518L847 518L847 488L900 488L900 489L900 601L900 601L847 601L847 601L794 601L794 601L741 601L741 601L688 601L688 601L635 601L635 601L582 601L582 601L529 601L529 601L476 601L476 601L424 601L424 601L371 601L371 601L318 601L318 601L265 601L265 601L212 601L212 601L159 601L159 601L106 601L106 601L53 601L53 601L0 601Z" fill="#212121"></path><path d="M0 517L53 517L53 513L106 513L106 534L159 534L159 508L212 508L212 525L265 525L265 525L318 525L318 516L371 516L371 529L424 529L424 531L476 531L476 522L529 522L529 530L582 530L582 508L635 508L635 511L688 511L688 518L741 518L741 504L794 504L794 521L847 521L847 530L900 530L900 531L900 601L900 601L847 601L847 601L794 601L794 601L741 601L741 601L688 601L688 601L635 601L635 601L582 601L582 601L529 601L529 601L476 601L476 601L424 601L424 601L371 601L371 601L318 601L318 601L265 601L265 601L212 601L212 601L159 601L159 601L106 601L106 601L53 601L53 601L0 601Z" fill="#212121"></path><path d="M0 546L53 546L53 522L106 522L106 545L159 545L159 524L212 524L212 541L265 541L265 543L318 543L318 535L371 535L371 537L424 537L424 535L476 535L476 541L529 541L529 528L582 528L582 522L635 522L635 534L688 534L688 520L741 520L741 537L794 537L794 535L847 535L847 528L900 528L900 542L900 601L900 601L847 601L847 601L794 601L794 601L741 601L741 601L688 601L688 601L635 601L635 601L582 601L582 601L529 601L529 601L476 601L476 601L424 601L424 601L371 601L371 601L318 601L318 601L265 601L265 601L212 601L212 601L159 601L159 601L106 601L106 601L53 601L53 601L0 601Z" fill="#1b1b1b"></path><path d="M0 559L53 559L53 542L106 542L106 557L159 557L159 560L212 560L212 559L265 559L265 549L318 549L318 538L371 538L371 540L424 540L424 543L476 543L476 538L529 538L529 549L582 549L582 547L635 547L635 550L688 550L688 552L741 552L741 546L794 546L794 547L847 547L847 561L900 561L900 546L900 601L900 601L847 601L847 601L794 601L794 601L741 601L741 601L688 601L688 601L635 601L635 601L582 601L582 601L529 601L529 601L476 601L476 601L424 601L424 601L371 601L371 601L318 601L318 601L265 601L265 601L212 601L212 601L159 601L159 601L106 601L106 601L53 601L53 601L0 601Z" fill="#141414"></path><path d="M0 571L53 571L53 570L106 570L106 573L159 573L159 562L212 562L212 557L265 557L265 573L318 573L318 562L371 562L371 555L424 555L424 572L476 572L476 570L529 570L529 556L582 556L582 561L635 561L635 563L688 563L688 561L741 561L741 560L794 560L794 567L847 567L847 560L900 560L900 564L900 601L900 601L847 601L847 601L794 601L794 601L741 601L741 601L688 601L688 601L635 601L635 601L582 601L582 601L529 601L529 601L476 601L476 601L424 601L424 601L371 601L371 601L318 601L318 601L265 601L265 601L212 601L212 601L159 601L159 601L106 601L106 601L53 601L53 601L0 601Z" fill="#0b0b0b"></path><path d="M0 577L53 577L53 585L106 585L106 578L159 578L159 572L212 572L212 575L265 575L265 585L318 585L318 572L371 572L371 583L424 583L424 573L476 573L476 575L529 575L529 585L582 585L582 578L635 578L635 580L688 580L688 583L741 583L741 579L794 579L794 584L847 584L847 583L900 583L900 574L900 601L900 601L847 601L847 601L794 601L794 601L741 601L741 601L688 601L688 601L635 601L635 601L582 601L582 601L529 601L529 601L476 601L476 601L424 601L424 601L371 601L371 601L318 601L318 601L265 601L265 601L212 601L212 601L159 601L159 601L106 601L106 601L53 601L53 601L0 601Z" fill="#000000"></path></svg>