<svg id="visual" viewBox="0 0 900 600" width="900" height="600" xmlns="http://www.w3.org/2000/svg" xmlns:xlink="http://www.w3.org/1999/xlink" version="1.1"><rect x="0" y="0" width="900" height="600" fill="#000000"></rect><defs><linearGradient id="grad1_0" x1="33.3%" y1="0%" x2="100%" y2="100%"><stop offset="20%" stop-color="#000000" stop-opacity="1"></stop><stop offset="80%" stop-color="#000000" stop-opacity="1"></stop></linearGradient></defs><defs><linearGradient id="grad2_0" x1="0%" y1="0%" x2="66.7%" y2="100%"><stop offset="20%" stop-color="#000000" stop-opacity="1"></stop><stop offset="80%" stop-color="#000000" stop-opacity="1"></stop></linearGradient></defs><g transform="translate(900, 0)"><path d="M0 324.5C-16.3 321.2 -32.5 317.9 -43.4 301.9C-54.3 285.9 -59.7 257.1 -76.1 259.1C-92.4 261.1 -119.7 293.9 -134.8 295.2C-149.9 296.5 -152.7 266.3 -160 249C-167.3 231.7 -179.1 227.4 -192.5 222.2C-205.9 217 -221 211 -234.3 203C-247.6 195 -259 185.1 -270 173.5C-281 162 -291.6 148.8 -287.4 131.3C-283.3 113.7 -264.6 91.9 -260 76.3C-255.4 60.8 -265 51.7 -278.1 40C-291.2 28.3 -307.9 14.2 -324.5 0L0 0Z" fill="#ffffff"></path></g><g transform="translate(0, 600)"><path d="M0 -324.5C15.7 -325.7 31.5 -326.8 46 -319.7C60.4 -312.6 73.7 -297.2 82 -279.2C90.3 -261.2 93.8 -240.6 111.3 -243.8C128.9 -247 160.6 -273.9 174.1 -270.9C187.6 -267.9 182.8 -234.8 191.2 -220.7C199.6 -206.5 221.2 -211.2 239.6 -207.6C257.9 -204 273.1 -192 270 -173.5C267 -155.1 245.7 -130 256.5 -117.1C267.3 -104.3 310.2 -103.6 311.4 -91.4C312.5 -79.2 272 -55.6 267.3 -38.4C262.5 -21.3 293.5 -10.6 324.5 0L0 0Z" fill="#ffffff"></path></g></svg>