<svg id="visual" viewBox="0 0 900 600" width="900" height="600" xmlns="http://www.w3.org/2000/svg" xmlns:xlink="http://www.w3.org/1999/xlink" version="1.1"><rect x="0" y="0" width="900" height="600" fill="#000000"></rect><defs><linearGradient id="grad1_0" x1="33.3%" y1="0%" x2="100%" y2="100%"><stop offset="20%" stop-color="#000000" stop-opacity="1"></stop><stop offset="80%" stop-color="#000000" stop-opacity="1"></stop></linearGradient></defs><defs><linearGradient id="grad2_0" x1="0%" y1="0%" x2="66.7%" y2="100%"><stop offset="20%" stop-color="#000000" stop-opacity="1"></stop><stop offset="80%" stop-color="#000000" stop-opacity="1"></stop></linearGradient></defs><g transform="translate(900, 0)"><path d="M0 459.7C-18.9 438.7 -37.9 417.7 -59.8 415.7C-81.7 413.8 -106.5 430.9 -124.5 424.1C-142.6 417.3 -153.9 386.5 -167.4 366.6C-181 346.7 -196.8 337.6 -207.6 323C-218.4 308.5 -224.2 288.5 -247.5 285.7C-270.8 282.9 -311.6 297.3 -340.1 294.7C-368.5 292.1 -384.6 272.6 -386.7 248.5C-388.9 224.5 -377.1 195.9 -382 174.5C-387 153 -408.8 138.7 -406.8 119.5C-404.9 100.2 -379.2 76 -384.1 55.2C-388.9 34.5 -424.3 17.2 -459.7 0L0 0Z" fill="#ffffff"></path></g><g transform="translate(0, 600)"><path d="M0 -459.7C15.5 -411.5 31.1 -363.3 52.2 -363.3C73.4 -363.2 100.2 -411.4 126.8 -431.8C153.4 -452.1 179.8 -444.6 191 -418.2C202.1 -391.7 198 -346.2 211.9 -329.8C225.9 -313.4 257.9 -326 277 -319.7C296.1 -313.3 302.4 -288 306.1 -265.2C309.8 -242.5 310.9 -222.4 325.6 -209.2C340.2 -196.1 368.3 -189.9 383.9 -175.3C399.4 -160.7 402.4 -137.7 394.4 -115.8C386.3 -93.9 367.1 -73.2 376.1 -54.1C385.2 -35 422.4 -17.5 459.7 0L0 0Z" fill="#ffffff"></path></g></svg>