<svg id="visual" viewBox="0 0 900 600" width="900" height="600" xmlns="http://www.w3.org/2000/svg" xmlns:xlink="http://www.w3.org/1999/xlink" version="1.1"><g stroke-width="1" stroke-linejoin="bevel"><path d="M432 293L402 383L484 308Z" fill="#303030" stroke="#303030"></path><path d="M402 383L488 390L484 308Z" fill="#1b1b1b" stroke="#1b1b1b"></path><path d="M265 298L330 417L402 383Z" fill="#000000" stroke="#000000"></path><path d="M402 383L465 516L488 390Z" fill="#ababab" stroke="#ababab"></path><path d="M330 417L360 465L402 383Z" fill="#ababab" stroke="#ababab"></path><path d="M465 516L606 382L488 390Z" fill="#000000" stroke="#000000"></path><path d="M488 390L606 382L484 308Z" fill="#000000" stroke="#000000"></path><path d="M368 187L329 229L432 293Z" fill="#e2e2e2" stroke="#e2e2e2"></path><path d="M432 293L265 298L402 383Z" fill="#777777" stroke="#777777"></path><path d="M606 382L601 290L484 308Z" fill="#777777" stroke="#777777"></path><path d="M486 170L368 187L432 293Z" fill="#777777" stroke="#777777"></path><path d="M360 465L465 516L402 383Z" fill="#e2e2e2" stroke="#e2e2e2"></path><path d="M486 170L432 293L484 308Z" fill="#474747" stroke="#474747"></path><path d="M574 201L486 170L484 308Z" fill="#919191" stroke="#919191"></path><path d="M329 229L265 298L432 293Z" fill="#5e5e5e" stroke="#5e5e5e"></path><path d="M601 290L574 201L484 308Z" fill="#ffffff" stroke="#ffffff"></path><path d="M330 417L301 491L360 465Z" fill="#ababab" stroke="#ababab"></path><path d="M360 465L438 600L465 516Z" fill="#474747" stroke="#474747"></path><path d="M176 415L301 491L330 417Z" fill="#e2e2e2" stroke="#e2e2e2"></path><path d="M687 489L673 379L606 382Z" fill="#474747" stroke="#474747"></path><path d="M606 382L673 379L601 290Z" fill="#474747" stroke="#474747"></path><path d="M601 290L674 172L574 201Z" fill="#000000" stroke="#000000"></path><path d="M301 491L438 600L360 465Z" fill="#ffffff" stroke="#ffffff"></path><path d="M465 516L639 523L606 382Z" fill="#c6c6c6" stroke="#c6c6c6"></path><path d="M329 229L202 262L265 298Z" fill="#303030" stroke="#303030"></path><path d="M265 298L176 415L330 417Z" fill="#303030" stroke="#303030"></path><path d="M275 138L202 262L329 229Z" fill="#919191" stroke="#919191"></path><path d="M486 170L362 103L368 187Z" fill="#777777" stroke="#777777"></path><path d="M368 187L275 138L329 229Z" fill="#e2e2e2" stroke="#e2e2e2"></path><path d="M489 72L362 103L486 170Z" fill="#777777" stroke="#777777"></path><path d="M524 600L639 523L465 516Z" fill="#e2e2e2" stroke="#e2e2e2"></path><path d="M438 600L524 600L465 516Z" fill="#777777" stroke="#777777"></path><path d="M362 103L275 138L368 187Z" fill="#ffffff" stroke="#ffffff"></path><path d="M202 262L176 415L265 298Z" fill="#777777" stroke="#777777"></path><path d="M301 491L260 600L438 600Z" fill="#c6c6c6" stroke="#c6c6c6"></path><path d="M606 85L489 72L486 170Z" fill="#777777" stroke="#777777"></path><path d="M639 523L687 489L606 382Z" fill="#1b1b1b" stroke="#1b1b1b"></path><path d="M730 283L674 172L601 290Z" fill="#303030" stroke="#303030"></path><path d="M574 201L606 85L486 170Z" fill="#303030" stroke="#303030"></path><path d="M730 283L601 290L673 379Z" fill="#474747" stroke="#474747"></path><path d="M776 295L730 283L673 379Z" fill="#ffffff" stroke="#ffffff"></path><path d="M275 138L170 229L202 262Z" fill="#e2e2e2" stroke="#e2e2e2"></path><path d="M202 262L105 275L176 415Z" fill="#777777" stroke="#777777"></path><path d="M176 415L201 529L301 491Z" fill="#e2e2e2" stroke="#e2e2e2"></path><path d="M674 172L606 85L574 201Z" fill="#000000" stroke="#000000"></path><path d="M639 523L719 600L687 489Z" fill="#777777" stroke="#777777"></path><path d="M524 600L623 600L639 523Z" fill="#ffffff" stroke="#ffffff"></path><path d="M201 529L260 600L301 491Z" fill="#5e5e5e" stroke="#5e5e5e"></path><path d="M838 431L776 295L673 379Z" fill="#c6c6c6" stroke="#c6c6c6"></path><path d="M730 283L771 203L674 172Z" fill="#e2e2e2" stroke="#e2e2e2"></path><path d="M674 172L701 115L606 85Z" fill="#ababab" stroke="#ababab"></path><path d="M304 0L194 113L275 138Z" fill="#777777" stroke="#777777"></path><path d="M275 138L194 113L170 229Z" fill="#919191" stroke="#919191"></path><path d="M304 0L275 138L362 103Z" fill="#000000" stroke="#000000"></path><path d="M771 203L701 115L674 172Z" fill="#777777" stroke="#777777"></path><path d="M68 211L105 275L170 229Z" fill="#e2e2e2" stroke="#e2e2e2"></path><path d="M170 229L105 275L202 262Z" fill="#ababab" stroke="#ababab"></path><path d="M67 490L168 600L201 529Z" fill="#474747" stroke="#474747"></path><path d="M602 0L481 0L489 72Z" fill="#1b1b1b" stroke="#1b1b1b"></path><path d="M489 72L362 0L362 103Z" fill="#ababab" stroke="#ababab"></path><path d="M602 0L489 72L606 85Z" fill="#5e5e5e" stroke="#5e5e5e"></path><path d="M719 600L769 483L687 489Z" fill="#5e5e5e" stroke="#5e5e5e"></path><path d="M687 489L769 483L673 379Z" fill="#e2e2e2" stroke="#e2e2e2"></path><path d="M481 0L362 0L489 72Z" fill="#e2e2e2" stroke="#e2e2e2"></path><path d="M776 295L771 203L730 283Z" fill="#e2e2e2" stroke="#e2e2e2"></path><path d="M623 600L719 600L639 523Z" fill="#919191" stroke="#919191"></path><path d="M362 0L304 0L362 103Z" fill="#1b1b1b" stroke="#1b1b1b"></path><path d="M201 529L168 600L260 600Z" fill="#5e5e5e" stroke="#5e5e5e"></path><path d="M67 490L201 529L176 415Z" fill="#ffffff" stroke="#ffffff"></path><path d="M678 0L602 0L606 85Z" fill="#303030" stroke="#303030"></path><path d="M105 275L60 419L176 415Z" fill="#303030" stroke="#303030"></path><path d="M93 127L68 211L170 229Z" fill="#c6c6c6" stroke="#c6c6c6"></path><path d="M105 275L0 377L60 419Z" fill="#c6c6c6" stroke="#c6c6c6"></path><path d="M93 127L170 229L194 113Z" fill="#474747" stroke="#474747"></path><path d="M769 483L838 431L673 379Z" fill="#474747" stroke="#474747"></path><path d="M776 295L900 280L771 203Z" fill="#ffffff" stroke="#ffffff"></path><path d="M900 477L838 431L769 483Z" fill="#000000" stroke="#000000"></path><path d="M60 419L67 490L176 415Z" fill="#c6c6c6" stroke="#c6c6c6"></path><path d="M168 0L93 127L194 113Z" fill="#919191" stroke="#919191"></path><path d="M780 0L678 0L701 115Z" fill="#777777" stroke="#777777"></path><path d="M701 115L678 0L606 85Z" fill="#303030" stroke="#303030"></path><path d="M304 0L168 0L194 113Z" fill="#5e5e5e" stroke="#5e5e5e"></path><path d="M0 300L0 377L105 275Z" fill="#303030" stroke="#303030"></path><path d="M60 419L0 460L67 490Z" fill="#1b1b1b" stroke="#1b1b1b"></path><path d="M0 300L105 275L68 211Z" fill="#303030" stroke="#303030"></path><path d="M0 220L0 300L68 211Z" fill="#474747" stroke="#474747"></path><path d="M0 600L67 600L67 490Z" fill="#303030" stroke="#303030"></path><path d="M67 490L67 600L168 600Z" fill="#e2e2e2" stroke="#e2e2e2"></path><path d="M900 477L900 392L838 431Z" fill="#ffffff" stroke="#ffffff"></path><path d="M838 431L900 392L776 295Z" fill="#000000" stroke="#000000"></path><path d="M771 203L833 87L701 115Z" fill="#303030" stroke="#303030"></path><path d="M0 377L0 460L60 419Z" fill="#e2e2e2" stroke="#e2e2e2"></path><path d="M719 600L829 600L769 483Z" fill="#303030" stroke="#303030"></path><path d="M900 392L900 280L776 295Z" fill="#474747" stroke="#474747"></path><path d="M0 61L0 220L93 127Z" fill="#c6c6c6" stroke="#c6c6c6"></path><path d="M93 127L0 220L68 211Z" fill="#000000" stroke="#000000"></path><path d="M900 168L833 87L771 203Z" fill="#ababab" stroke="#ababab"></path><path d="M829 600L900 477L769 483Z" fill="#1b1b1b" stroke="#1b1b1b"></path><path d="M833 87L780 0L701 115Z" fill="#919191" stroke="#919191"></path><path d="M900 280L900 168L771 203Z" fill="#000000" stroke="#000000"></path><path d="M833 87L900 0L780 0Z" fill="#ffffff" stroke="#ffffff"></path><path d="M0 460L0 600L67 490Z" fill="#ffffff" stroke="#ffffff"></path><path d="M168 0L65 0L93 127Z" fill="#919191" stroke="#919191"></path><path d="M900 168L900 108L833 87Z" fill="#777777" stroke="#777777"></path><path d="M829 600L900 600L900 477Z" fill="#5e5e5e" stroke="#5e5e5e"></path><path d="M65 0L0 61L93 127Z" fill="#777777" stroke="#777777"></path><path d="M65 0L0 0L0 61Z" fill="#ffffff" stroke="#ffffff"></path><path d="M900 108L900 0L833 87Z" fill="#c6c6c6" stroke="#c6c6c6"></path></g></svg>