<svg id="visual" viewBox="0 0 900 600" width="900" height="600" xmlns="http://www.w3.org/2000/svg" xmlns:xlink="http://www.w3.org/1999/xlink" version="1.1"><rect x="0" y="0" width="900" height="600" fill="#1e1e1e"></rect><path d="M558 0L369 0L369 40L576 40L576 80L626 80L626 120L285 120L285 160L542 160L542 200L573 200L573 240L515 240L515 280L611 280L611 320L607 320L607 360L349 360L349 400L306 400L306 440L535 440L535 480L531 480L531 520L635 520L635 560L504 560L504 600L0 600L0 560L0 560L0 520L0 520L0 480L0 480L0 440L0 440L0 400L0 400L0 360L0 360L0 320L0 320L0 280L0 280L0 240L0 240L0 200L0 200L0 160L0 160L0 120L0 120L0 80L0 80L0 40L0 40L0 0L0 0Z" fill="#000000"></path><path d="M354 0L432 0L432 40L275 40L275 80L466 80L466 120L539 120L539 160L327 160L327 200L529 200L529 240L483 240L483 280L384 280L384 320L402 320L402 360L328 360L328 400L253 400L253 440L336 440L336 480L412 480L412 520L245 520L245 560L350 560L350 600L0 600L0 560L0 560L0 520L0 520L0 480L0 480L0 440L0 440L0 400L0 400L0 360L0 360L0 320L0 320L0 280L0 280L0 240L0 240L0 200L0 200L0 160L0 160L0 120L0 120L0 80L0 80L0 40L0 40L0 0L0 0Z" fill="#141414"></path><path d="M449 0L410 0L410 40L190 40L190 80L309 80L309 120L202 120L202 160L415 160L415 200L301 200L301 240L380 240L380 280L402 280L402 320L203 320L203 360L263 360L263 400L213 400L213 440L260 440L260 480L393 480L393 520L256 520L256 560L293 560L293 600L0 600L0 560L0 560L0 520L0 520L0 480L0 480L0 440L0 440L0 400L0 400L0 360L0 360L0 320L0 320L0 280L0 280L0 240L0 240L0 200L0 200L0 160L0 160L0 120L0 120L0 80L0 80L0 40L0 40L0 0L0 0Z" fill="#212121"></path><path d="M358 0L144 0L144 40L314 40L314 80L257 80L257 120L213 120L213 160L219 160L219 200L164 200L164 240L255 240L255 280L180 280L180 320L279 320L279 360L267 360L267 400L174 400L174 440L164 440L164 480L261 480L261 520L161 520L161 560L200 560L200 600L0 600L0 560L0 560L0 520L0 520L0 480L0 480L0 440L0 440L0 400L0 400L0 360L0 360L0 320L0 320L0 280L0 280L0 240L0 240L0 200L0 200L0 160L0 160L0 120L0 120L0 80L0 80L0 40L0 40L0 0L0 0Z" fill="#212121"></path><path d="M225 0L177 0L177 40L147 40L147 80L242 80L242 120L178 120L178 160L221 160L221 200L193 200L193 240L207 240L207 280L232 280L232 320L128 320L128 360L260 360L260 400L94 400L94 440L200 440L200 480L217 480L217 520L108 520L108 560L167 560L167 600L0 600L0 560L0 560L0 520L0 520L0 480L0 480L0 440L0 440L0 400L0 400L0 360L0 360L0 320L0 320L0 280L0 280L0 240L0 240L0 200L0 200L0 160L0 160L0 120L0 120L0 80L0 80L0 40L0 40L0 0L0 0Z" fill="#141414"></path><path d="M77 0L144 0L144 40L38 40L38 80L109 80L109 120L156 120L156 160L173 160L173 200L136 200L136 240L35 240L35 280L125 280L125 320L82 320L82 360L95 360L95 400L43 400L43 440L165 440L165 480L135 480L135 520L82 520L82 560L39 560L39 600L0 600L0 560L0 560L0 520L0 520L0 480L0 480L0 440L0 440L0 400L0 400L0 360L0 360L0 320L0 320L0 280L0 280L0 240L0 240L0 200L0 200L0 160L0 160L0 120L0 120L0 80L0 80L0 40L0 40L0 0L0 0Z" fill="#000000"></path></svg>