<svg id="visual" viewBox="0 0 900 600" width="900" height="600" xmlns="http://www.w3.org/2000/svg" xmlns:xlink="http://www.w3.org/1999/xlink" version="1.1"><rect x="0" y="0" width="900" height="600" fill="#1e1e1e"></rect><path d="M493 600L605 600L605 560L429 560L429 520L407 520L407 480L581 480L581 440L266 440L266 400L429 400L429 360L431 360L431 320L458 320L458 280L275 280L275 240L434 240L434 200L388 200L388 160L573 160L573 120L502 120L502 80L312 80L312 40L411 40L411 0L900 0L900 40L900 40L900 80L900 80L900 120L900 120L900 160L900 160L900 200L900 200L900 240L900 240L900 280L900 280L900 320L900 320L900 360L900 360L900 400L900 400L900 440L900 440L900 480L900 480L900 520L900 520L900 560L900 560L900 600L900 600Z" fill="#000000"></path><path d="M493 600L483 600L483 560L445 560L445 520L370 520L370 480L483 480L483 440L364 440L364 400L513 400L513 360L557 360L557 320L413 320L413 280L378 280L378 240L370 240L370 200L574 200L574 160L547 160L547 120L606 120L606 80L613 80L613 40L664 40L664 0L900 0L900 40L900 40L900 80L900 80L900 120L900 120L900 160L900 160L900 200L900 200L900 240L900 240L900 280L900 280L900 320L900 320L900 360L900 360L900 400L900 400L900 440L900 440L900 480L900 480L900 520L900 520L900 560L900 560L900 600L900 600Z" fill="#141414"></path><path d="M454 600L689 600L689 560L572 560L572 520L450 520L450 480L548 480L548 440L462 440L462 400L510 400L510 360L542 360L542 320L447 320L447 280L455 280L455 240L515 240L515 200L677 200L677 160L626 160L626 120L711 120L711 80L498 80L498 40L488 40L488 0L900 0L900 40L900 40L900 80L900 80L900 120L900 120L900 160L900 160L900 200L900 200L900 240L900 240L900 280L900 280L900 320L900 320L900 360L900 360L900 400L900 400L900 440L900 440L900 480L900 480L900 520L900 520L900 560L900 560L900 600L900 600Z" fill="#212121"></path><path d="M741 600L569 600L569 560L609 560L609 520L637 520L637 480L763 480L763 440L688 440L688 400L655 400L655 360L729 360L729 320L743 320L743 280L620 280L620 240L673 240L673 200L756 200L756 160L645 160L645 120L702 120L702 80L706 80L706 40L733 40L733 0L900 0L900 40L900 40L900 80L900 80L900 120L900 120L900 160L900 160L900 200L900 200L900 240L900 240L900 280L900 280L900 320L900 320L900 360L900 360L900 400L900 400L900 440L900 440L900 480L900 480L900 520L900 520L900 560L900 560L900 600L900 600Z" fill="#212121"></path><path d="M712 600L797 600L797 560L735 560L735 520L695 520L695 480L684 480L684 440L649 440L649 400L664 400L664 360L739 360L739 320L688 320L688 280L765 280L765 240L648 240L648 200L721 200L721 160L809 160L809 120L712 120L712 80L743 80L743 40L752 40L752 0L900 0L900 40L900 40L900 80L900 80L900 120L900 120L900 160L900 160L900 200L900 200L900 240L900 240L900 280L900 280L900 320L900 320L900 360L900 360L900 400L900 400L900 440L900 440L900 480L900 480L900 520L900 520L900 560L900 560L900 600L900 600Z" fill="#141414"></path><path d="M739 600L764 600L764 560L794 560L794 520L825 520L825 480L793 480L793 440L839 440L839 400L731 400L731 360L772 360L772 320L833 320L833 280L833 280L833 240L865 240L865 200L804 200L804 160L843 160L843 120L736 120L736 80L812 80L812 40L767 40L767 0L900 0L900 40L900 40L900 80L900 80L900 120L900 120L900 160L900 160L900 200L900 200L900 240L900 240L900 280L900 280L900 320L900 320L900 360L900 360L900 400L900 400L900 440L900 440L900 480L900 480L900 520L900 520L900 560L900 560L900 600L900 600Z" fill="#000000"></path></svg>