<svg id="visual" viewBox="0 0 900 600" width="900" height="600" xmlns="http://www.w3.org/2000/svg" xmlns:xlink="http://www.w3.org/1999/xlink" version="1.1"><rect x="0" y="0" width="900" height="600" fill="#000000"></rect><path d="M0 183L8.8 207.5C17.7 232 35.3 281 53 288.8C70.7 296.7 88.3 263.3 106 249.8C123.7 236.3 141.3 242.7 159 247.3C176.7 252 194.3 255 212 246.7C229.7 238.3 247.3 218.7 265 219.5C282.7 220.3 300.3 241.7 318 226.3C335.7 211 353.3 159 371 172.7C388.7 186.3 406.3 265.7 423.8 337.5C441.3 409.3 458.7 473.7 476.2 431C493.7 388.3 511.3 238.7 529 211C546.7 183.3 564.3 277.7 582 283.7C599.7 289.7 617.3 207.3 635 219.2C652.7 231 670.3 337 688 398.7C705.7 460.3 723.3 477.7 741 475.7C758.7 473.7 776.3 452.3 794 421.8C811.7 391.3 829.3 351.7 847 337.2C864.7 322.7 882.3 333.3 891.2 338.7L900 344L900 601L891.2 601C882.3 601 864.7 601 847 601C829.3 601 811.7 601 794 601C776.3 601 758.7 601 741 601C723.3 601 705.7 601 688 601C670.3 601 652.7 601 635 601C617.3 601 599.7 601 582 601C564.3 601 546.7 601 529 601C511.3 601 493.7 601 476.2 601C458.7 601 441.3 601 423.8 601C406.3 601 388.7 601 371 601C353.3 601 335.7 601 318 601C300.3 601 282.7 601 265 601C247.3 601 229.7 601 212 601C194.3 601 176.7 601 159 601C141.3 601 123.7 601 106 601C88.3 601 70.7 601 53 601C35.3 601 17.7 601 8.8 601L0 601Z" fill="#ffffff" stroke-linecap="round" stroke-linejoin="miter"></path></svg>