<svg id="visual" viewBox="0 0 900 600" width="900" height="600" xmlns="http://www.w3.org/2000/svg" xmlns:xlink="http://www.w3.org/1999/xlink" version="1.1"><rect x="0" y="0" width="900" height="600" fill="#000000"></rect><path d="M0 106L5.3 91.2C10.7 76.3 21.3 46.7 32 36.7C42.7 26.7 53.3 36.3 64 46.8C74.7 57.3 85.3 68.7 96.2 68.7C107 68.7 118 57.3 128.8 52.2C139.7 47 150.3 48 161 43.3C171.7 38.7 182.3 28.3 193 36.2C203.7 44 214.3 70 225 76.5C235.7 83 246.3 70 257 64.8C267.7 59.7 278.3 62.3 289 56.7C299.7 51 310.3 37 321.2 34C332 31 343 39 353.8 48C364.7 57 375.3 67 386 61.8C396.7 56.7 407.3 36.3 418 27.2C428.7 18 439.3 20 450 35C460.7 50 471.3 78 482 89.5C492.7 101 503.3 96 514 85.2C524.7 74.3 535.3 57.7 546.2 51.3C557 45 568 49 578.8 47C589.7 45 600.3 37 611 33C621.7 29 632.3 29 643 28.5C653.7 28 664.3 27 675 39.3C685.7 51.7 696.3 77.3 707 84.8C717.7 92.3 728.3 81.7 739 72.3C749.7 63 760.3 55 771.2 58.3C782 61.7 793 76.3 803.8 79.8C814.7 83.3 825.3 75.7 836 67.8C846.7 60 857.3 52 868 52.8C878.7 53.7 889.3 63.3 894.7 68.2L900 73L900 0L894.7 0C889.3 0 878.7 0 868 0C857.3 0 846.7 0 836 0C825.3 0 814.7 0 803.8 0C793 0 782 0 771.2 0C760.3 0 749.7 0 739 0C728.3 0 717.7 0 707 0C696.3 0 685.7 0 675 0C664.3 0 653.7 0 643 0C632.3 0 621.7 0 611 0C600.3 0 589.7 0 578.8 0C568 0 557 0 546.2 0C535.3 0 524.7 0 514 0C503.3 0 492.7 0 482 0C471.3 0 460.7 0 450 0C439.3 0 428.7 0 418 0C407.3 0 396.7 0 386 0C375.3 0 364.7 0 353.8 0C343 0 332 0 321.2 0C310.3 0 299.7 0 289 0C278.3 0 267.7 0 257 0C246.3 0 235.7 0 225 0C214.3 0 203.7 0 193 0C182.3 0 171.7 0 161 0C150.3 0 139.7 0 128.8 0C118 0 107 0 96.2 0C85.3 0 74.7 0 64 0C53.3 0 42.7 0 32 0C21.3 0 10.7 0 5.3 0L0 0Z" fill="#ffffff" stroke-linecap="round" stroke-linejoin="miter"></path></svg>