<svg id="visual" viewBox="0 0 900 600" width="900" height="600" xmlns="http://www.w3.org/2000/svg" xmlns:xlink="http://www.w3.org/1999/xlink" version="1.1"><rect x="0" y="0" width="900" height="600" fill="#8f8f8f"></rect><path d="M0 195L7.5 175.7C15 156.3 30 117.7 45 103C60 88.3 75 97.7 90 105.7C105 113.7 120 120.3 135 126.8C150 133.3 165 139.7 180 150.2C195 160.7 210 175.3 225 160C240 144.7 255 99.3 270 77.2C285 55 300 56 315 76C330 96 345 135 360 141.8C375 148.7 390 123.3 405 115.8C420 108.3 435 118.7 450 133C465 147.3 480 165.7 495 176.8C510 188 525 192 540 193.7C555 195.3 570 194.7 585 184C600 173.3 615 152.7 630 152.2C645 151.7 660 171.3 675 178C690 184.7 705 178.3 720 180.3C735 182.3 750 192.7 765 186.2C780 179.7 795 156.3 810 133.7C825 111 840 89 855 104.5C870 120 885 173 892.5 199.5L900 226L900 0L892.5 0C885 0 870 0 855 0C840 0 825 0 810 0C795 0 780 0 765 0C750 0 735 0 720 0C705 0 690 0 675 0C660 0 645 0 630 0C615 0 600 0 585 0C570 0 555 0 540 0C525 0 510 0 495 0C480 0 465 0 450 0C435 0 420 0 405 0C390 0 375 0 360 0C345 0 330 0 315 0C300 0 285 0 270 0C255 0 240 0 225 0C210 0 195 0 180 0C165 0 150 0 135 0C120 0 105 0 90 0C75 0 60 0 45 0C30 0 15 0 7.5 0L0 0Z" fill="#000000"></path><path d="M0 88L7.5 96.8C15 105.7 30 123.3 45 123.7C60 124 75 107 90 92C105 77 120 64 135 67.5C150 71 165 91 180 97.8C195 104.7 210 98.3 225 101C240 103.7 255 115.3 270 125.7C285 136 300 145 315 152.2C330 159.3 345 164.7 360 152.5C375 140.3 390 110.7 405 101.5C420 92.3 435 103.7 450 101.5C465 99.3 480 83.7 495 79C510 74.3 525 80.7 540 82.3C555 84 570 81 585 97.7C600 114.3 615 150.7 630 152.5C645 154.3 660 121.7 675 101C690 80.3 705 71.7 720 62.8C735 54 750 45 765 64.2C780 83.3 795 130.7 810 145.2C825 159.7 840 141.3 855 124.7C870 108 885 93 892.5 85.5L900 78L900 0L892.5 0C885 0 870 0 855 0C840 0 825 0 810 0C795 0 780 0 765 0C750 0 735 0 720 0C705 0 690 0 675 0C660 0 645 0 630 0C615 0 600 0 585 0C570 0 555 0 540 0C525 0 510 0 495 0C480 0 465 0 450 0C435 0 420 0 405 0C390 0 375 0 360 0C345 0 330 0 315 0C300 0 285 0 270 0C255 0 240 0 225 0C210 0 195 0 180 0C165 0 150 0 135 0C120 0 105 0 90 0C75 0 60 0 45 0C30 0 15 0 7.5 0L0 0Z" fill="#000000"></path><path d="M0 149L7.5 134.2C15 119.3 30 89.7 45 82C60 74.3 75 88.7 90 84C105 79.3 120 55.7 135 60.3C150 65 165 98 180 116C195 134 210 137 225 126C240 115 255 90 270 78.7C285 67.3 300 69.7 315 74.8C330 80 345 88 360 87C375 86 390 76 405 78.8C420 81.7 435 97.3 450 94C465 90.7 480 68.3 495 62.3C510 56.3 525 66.7 540 69.2C555 71.7 570 66.3 585 69.3C600 72.3 615 83.7 630 82.5C645 81.3 660 67.7 675 64.3C690 61 705 68 720 68.5C735 69 750 63 765 59.5C780 56 795 55 810 52.8C825 50.7 840 47.3 855 44C870 40.7 885 37.3 892.5 35.7L900 34L900 0L892.5 0C885 0 870 0 855 0C840 0 825 0 810 0C795 0 780 0 765 0C750 0 735 0 720 0C705 0 690 0 675 0C660 0 645 0 630 0C615 0 600 0 585 0C570 0 555 0 540 0C525 0 510 0 495 0C480 0 465 0 450 0C435 0 420 0 405 0C390 0 375 0 360 0C345 0 330 0 315 0C300 0 285 0 270 0C255 0 240 0 225 0C210 0 195 0 180 0C165 0 150 0 135 0C120 0 105 0 90 0C75 0 60 0 45 0C30 0 15 0 7.5 0L0 0Z" fill="#000000"></path><path d="M0 65L7.5 58.2C15 51.3 30 37.7 45 34.7C60 31.7 75 39.3 90 43.2C105 47 120 47 135 47.2C150 47.3 165 47.7 180 51.8C195 56 210 64 225 68.5C240 73 255 74 270 67C285 60 300 45 315 44.2C330 43.3 345 56.7 360 60.2C375 63.7 390 57.3 405 61C420 64.7 435 78.3 450 77.5C465 76.7 480 61.3 495 60.2C510 59 525 72 540 67.5C555 63 570 41 585 40.3C600 39.7 615 60.3 630 63.3C645 66.3 660 51.7 675 56C690 60.3 705 83.7 720 92.7C735 101.7 750 96.3 765 93.5C780 90.7 795 90.3 810 85.5C825 80.7 840 71.3 855 60.3C870 49.3 885 36.7 892.5 30.3L900 24L900 0L892.5 0C885 0 870 0 855 0C840 0 825 0 810 0C795 0 780 0 765 0C750 0 735 0 720 0C705 0 690 0 675 0C660 0 645 0 630 0C615 0 600 0 585 0C570 0 555 0 540 0C525 0 510 0 495 0C480 0 465 0 450 0C435 0 420 0 405 0C390 0 375 0 360 0C345 0 330 0 315 0C300 0 285 0 270 0C255 0 240 0 225 0C210 0 195 0 180 0C165 0 150 0 135 0C120 0 105 0 90 0C75 0 60 0 45 0C30 0 15 0 7.5 0L0 0Z" fill="#000000"></path><path d="M0 28L7.5 24C15 20 30 12 45 16.5C60 21 75 38 90 45.8C105 53.7 120 52.3 135 50.7C150 49 165 47 180 49.3C195 51.7 210 58.3 225 61.3C240 64.3 255 63.7 270 62.2C285 60.7 300 58.3 315 52.2C330 46 345 36 360 35.3C375 34.7 390 43.3 405 48C420 52.7 435 53.3 450 50.8C465 48.3 480 42.7 495 36.7C510 30.7 525 24.3 540 27.2C555 30 570 42 585 47.2C600 52.3 615 50.7 630 43.5C645 36.3 660 23.7 675 24.3C690 25 705 39 720 42.3C735 45.7 750 38.3 765 35.8C780 33.3 795 35.7 810 32.5C825 29.3 840 20.7 855 23.3C870 26 885 40 892.5 47L900 54L900 0L892.5 0C885 0 870 0 855 0C840 0 825 0 810 0C795 0 780 0 765 0C750 0 735 0 720 0C705 0 690 0 675 0C660 0 645 0 630 0C615 0 600 0 585 0C570 0 555 0 540 0C525 0 510 0 495 0C480 0 465 0 450 0C435 0 420 0 405 0C390 0 375 0 360 0C345 0 330 0 315 0C300 0 285 0 270 0C255 0 240 0 225 0C210 0 195 0 180 0C165 0 150 0 135 0C120 0 105 0 90 0C75 0 60 0 45 0C30 0 15 0 7.5 0L0 0Z" fill="#000000"></path></svg>