<svg id="visual" viewBox="0 0 900 600" width="900" height="600" xmlns="http://www.w3.org/2000/svg" xmlns:xlink="http://www.w3.org/1999/xlink" version="1.1"><rect x="0" y="0" width="900" height="600" fill="#000000"></rect><path d="M0 267L5.3 229.8C10.7 192.7 21.3 118.3 32 93C42.7 67.7 53.3 91.3 64 117.8C74.7 144.3 85.3 173.7 96.2 173.8C107 174 118 145 128.8 131.7C139.7 118.3 150.3 120.7 161 109.3C171.7 98 182.3 73 193 92.8C203.7 112.7 214.3 177.3 225 193.2C235.7 209 246.3 176 257 163C267.7 150 278.3 157 289 143.2C299.7 129.3 310.3 94.7 321.2 87C332 79.3 343 98.7 353.8 121C364.7 143.3 375.3 168.7 386 155.7C396.7 142.7 407.3 91.3 418 68.5C428.7 45.7 439.3 51.3 450 89.3C460.7 127.3 471.3 197.7 482 226.3C492.7 255 503.3 242 514 214.5C524.7 187 535.3 145 546.2 129.3C557 113.7 568 124.3 578.8 119.3C589.7 114.3 600.3 93.7 611 83.7C621.7 73.7 632.3 74.3 643 73.2C653.7 72 664.3 69 675 99.8C685.7 130.7 696.3 195.3 707 214.3C717.7 233.3 728.3 206.7 739 183C749.7 159.3 760.3 138.7 771.2 146.8C782 155 793 192 803.8 201C814.7 210 825.3 191 836 171.3C846.7 151.7 857.3 131.3 868 133.2C878.7 135 889.3 159 894.7 171L900 183L900 0L894.7 0C889.3 0 878.7 0 868 0C857.3 0 846.7 0 836 0C825.3 0 814.7 0 803.8 0C793 0 782 0 771.2 0C760.3 0 749.7 0 739 0C728.3 0 717.7 0 707 0C696.3 0 685.7 0 675 0C664.3 0 653.7 0 643 0C632.3 0 621.7 0 611 0C600.3 0 589.7 0 578.8 0C568 0 557 0 546.2 0C535.3 0 524.7 0 514 0C503.3 0 492.7 0 482 0C471.3 0 460.7 0 450 0C439.3 0 428.7 0 418 0C407.3 0 396.7 0 386 0C375.3 0 364.7 0 353.8 0C343 0 332 0 321.2 0C310.3 0 299.7 0 289 0C278.3 0 267.7 0 257 0C246.3 0 235.7 0 225 0C214.3 0 203.7 0 193 0C182.3 0 171.7 0 161 0C150.3 0 139.7 0 128.8 0C118 0 107 0 96.2 0C85.3 0 74.7 0 64 0C53.3 0 42.7 0 32 0C21.3 0 10.7 0 5.3 0L0 0Z" fill="#ffffff" stroke-linecap="round" stroke-linejoin="miter"></path></svg>